# xmcd CD database file
#
# Track frame offsets:
#	150
#	11378
#	30510
#	42453
#	66733
#	80530
#	100708
#	117953
#	141543
#	154795
#	171205
#	181478
#	198813
#	210853
#
# Disc length: 2972 seconds
#
# Revision: 1
# Processed by: cddbd v1.5.1PL0 Copyright (c) Steve Scherf et al.
# Submitted via: CDex 1.51
#
DISCID=bb0b9a0e
DTITLE=Becker, John and Patrick Joyce - Dueling Pianjos
DYEAR=1994
DGENRE=Jazz
TTITLE0=Get Me to the Church on Time
TTITLE1=I Can't Get Started with You
TTITLE2=Brazil
TTITLE3=Makin' Whoopee
TTITLE4=Digga Digga Do
TTITLE5=Meditation
TTITLE6=Dueling Pianjos
TTITLE7=Blue Prelude
TTITLE8=I Want to Be Happy
TTITLE9=I've Got the World on a String
TTITLE10=Dill Pickles Rag
TTITLE11=The Entertainer
TTITLE12=Tea for Two
TTITLE13=Little Rock Getaway
EXTD=YEAR: 1994
EXTT0=
EXTT1=
EXTT2=
EXTT3=
EXTT4=
EXTT5=
EXTT6=
EXTT7=
EXTT8=
EXTT9=
EXTT10=
EXTT11=
EXTT12=
EXTT13=
PLAYORDER=
